<?xml version="1.0" encoding="utf-8"?>
<!-- Generator: Adobe Illustrator 24.0.0, SVG Export Plug-In . SVG Version: 6.00 Build 0)  -->
<svg version="1.1" id="Слой_2" xmlns="http://www.w3.org/2000/svg" xmlns:xlink="http://www.w3.org/1999/xlink" x="0px" y="0px"
	 viewBox="0 0 800 800" style="enable-background:new 0 0 800 800;" xml:space="preserve">
<style type="text/css">
	.st0{fill:#2C4351;stroke:#D0D0D0;stroke-width:24;stroke-miterlimit:20.6309;}
	.st1{fill:#D0D0D0;}
</style>
<circle class="st0" cx="400" cy="402.6" r="379.7"/>
<g>
	<path class="st1" d="M381.9,190c24.4-21.4,60.7-6.2,65.2,24c1.3,45.9,0.2,91,0.3,137.9c0.3,230.8,10.8,245.6-11.7,254.3
		c-33.4,12.9-61.9-17-75.9-28c-35.6-37-77.4-79.1-98.3-82.2c-21.2-3.6-44,3.3-61.4-5c-12.4-4.6-18.5-17.4-21.2-33.3
		c-5.5-32-1.3-113.6-0.3-121c7.8-62.3,67.5-25.8,96.8-44.7C315.6,263.5,349.4,227.2,381.9,190z"/>
	<path class="st1" d="M541.1,252.8c23.3-37,15.1-28.5,46.6,1.8c85.9,101,58.1,247.1-29.9,311.6c-7.5-13.7-21-28.3-18.7-33.4
		c33.7-30.4,55.6-70,60.9-114.9C609.6,290.3,525,266.7,541.1,252.8z"/>
	<path class="st1" d="M516.3,500.1c-6.1-4-22.3-30.1-20.7-33.1c16.7-19.3,28.3-40.8,28.5-66.7c2.2-27.5-11.1-55.3-29.7-75.5
		c26.8-47.8,22.2-34.3,48.9,0.2c0.6,0.8,0.7,0.5,0.8,1.5c31.4,55.9,21.5,121-18.6,165.2C525.6,491.7,519.3,499.2,516.3,500.1z"/>
</g>
</svg>
